<?xml version="1.0" standalone="no"?><!DOCTYPE svg PUBLIC "-//W3C//DTD SVG 1.1//EN" "http://www.w3.org/Graphics/SVG/1.1/DTD/svg11.dtd"><svg t="1584681361103" class="icon" viewBox="0 0 1024 1024" version="1.1" xmlns="http://www.w3.org/2000/svg" p-id="4668" xmlns:xlink="http://www.w3.org/1999/xlink" width="200" height="200"><defs><style type="text/css"></style></defs><path d="M627.65 549.32l7.72 3.16s11.67-11.37 9.3-23.35l-5.46-3.31s0.01 15.3-11.56 23.5z" fill="#F099F9" p-id="4669"></path><path d="M506.79 496.76c4.67-33.99 7.73-68.23 7.58-99.14-0.01-1.76 5.86 43.29 14.2 99.14h66.34c-33.38-158.75-39.85-286.83-39.85-286.83H468.5c2.53 96.36-11.62 194.76-33.44 286.83h71.73z" fill="#7B62F6" p-id="4670"></path><path d="M563.91 683.76h81.07c-21.21-63.22-37.54-127.27-50.06-187h-66.16c10.12 67.9 23.87 151.75 35.15 187zM507.04 496.76h-71.53c-15.78 66.73-35.57 130.12-56.01 187h89.04c8.5-31.92 27.77-108.75 38.5-187zM554.63 209.9h-85.5c-4.7 0-8.55-3.85-8.55-8.55v-0.93c0-4.7 3.85-8.55 8.55-8.55h85.5c4.7 0 8.55 3.85 8.55 8.55v0.93c0 4.7-3.85 8.55-8.55 8.55z" fill="#F099F9" p-id="4671"></path><path d="M549.07 196v-21.5c0-20.78-17-37.78-37.78-37.78s-37.78 17-37.78 37.78V196h75.56z" fill="#F099F9" p-id="4672"></path><path d="M506.28 199.05l5.01-23.09 5.02 23.09-5.02 23.09z" fill="#F099F9" p-id="4673"></path><path d="M640.64 683.76H383.88c-9.31 26.79-18.76 52.1-28 75.67h311.96c-9.87-24.87-18.93-50.2-27.2-75.67z" fill="#6250EA" p-id="4674"></path><path d="M822.43 939.2c-81.09-55.67-111.25-103.5-157.01-179.77l-309.15-0.99c-55.9 105.5-140.48 180.76-140.48 180.76h176.2c-0.16-2.54-0.4-5.06-0.4-7.63 0-68.19 57.09-123.48 127.51-123.48s127.52 55.28 127.52 123.48c0 2.58-0.24 5.09-0.4 7.63h176.21z" fill="#7B62F6" p-id="4675"></path><path d="M547.73 366.97c-12.65-6.7-23.99-15.05-34.97-23.87l1.83 0.64h-0.04l-1.07-0.02-0.76-0.62c-8.89-7.24-17.49-14.85-25.18-23.62 10.32 5.43 19.73 12.02 28.84 18.98l-1.83-0.63h0.04l1-0.01 0.84 0.65c11.11 8.64 21.86 17.74 31.3 28.5z" fill="#110971" p-id="4676"></path><path d="M541.87 317.04c-7.66 9.56-16.34 17.95-25.32 25.98l-0.8 0.71-1.15 0.02h-0.04l1.95-0.73c-10.44 9.19-21.24 17.92-33.47 25.22 8.77-11.02 18.99-20.58 29.57-29.7l0.87-0.75 1.09 0.02h0.04l-1.95 0.73c9.18-7.79 18.68-15.23 29.21-21.5zM547.73 275.37c-12.65-6.69-23.99-15.05-34.97-23.87l1.83 0.64h-0.04l-1.07-0.02-0.76-0.62c-8.89-7.24-17.49-14.85-25.18-23.62 10.32 5.43 19.73 12.02 28.84 18.98l-1.83-0.63h0.04l1-0.01 0.84 0.65c11.11 8.63 21.86 17.74 31.3 28.5z" fill="#110971" p-id="4677"></path><path d="M541.87 225.44c-7.66 9.56-16.34 17.95-25.32 25.98l-0.8 0.71-1.15 0.02h-0.04l1.95-0.73c-10.44 9.19-21.24 17.92-33.47 25.22 8.77-11.02 18.99-20.58 29.57-29.7l0.87-0.75 1.09 0.02h0.04l-1.95 0.73c9.18-7.79 18.68-15.24 29.21-21.5zM479.65 573.25c-8.99-3.8-16.66-9.26-23.97-15.18l1.83 0.64h-0.02l-1.09-0.02-0.74-0.61c-5.91-4.88-11.52-10.14-16.22-16.55 7.33 3.07 13.75 7.31 19.88 11.91l-1.83-0.63h0.02l0.98-0.02 0.85 0.66c7.45 5.73 14.54 11.94 20.31 19.8z" fill="#110971" p-id="4678"></path><path d="M475.74 539.89c-4.64 6.94-10.3 12.7-16.27 18.1l-0.78 0.7-1.17 0.03h-0.02l1.95-0.73c-6.95 6.15-14.26 11.85-23.01 16.11 5.29-7.98 12.02-14.51 19.11-20.59l0.88-0.75 1.07 0.02h0.02l-1.95 0.73c6.17-5.16 12.66-9.98 20.17-13.62zM463 645.19c-8.99-3.8-16.66-9.26-23.97-15.18l1.83 0.64h-0.02l-1.09-0.02-0.74-0.61c-5.91-4.88-11.52-10.14-16.22-16.55 7.33 3.07 13.75 7.31 19.88 11.91l-1.83-0.63h0.02l0.98-0.02 0.85 0.66c7.46 5.72 14.54 11.93 20.31 19.8z" fill="#110971" p-id="4679"></path><path d="M459.09 611.82c-4.64 6.94-10.3 12.7-16.27 18.1l-0.78 0.7-1.17 0.03h-0.02l1.95-0.73c-6.95 6.15-14.26 11.85-23.01 16.11 5.29-7.98 12.02-14.51 19.11-20.59l0.88-0.75 1.07 0.02h0.02l-1.95 0.73c6.17-5.16 12.66-9.98 20.17-13.62zM590.05 573.25c-8.99-3.8-16.66-9.26-23.97-15.18l1.83 0.64h-0.02l-1.09-0.02-0.74-0.61c-5.91-4.88-11.52-10.14-16.22-16.55 7.33 3.07 13.75 7.31 19.88 11.91l-1.83-0.63h0.02l0.98-0.02 0.85 0.66c7.46 5.73 14.54 11.94 20.31 19.8z" fill="#110971" p-id="4680"></path><path d="M586.14 539.89c-4.64 6.94-10.3 12.7-16.27 18.1l-0.78 0.7-1.17 0.03h-0.02l1.95-0.73c-6.95 6.15-14.26 11.85-23.01 16.11 5.29-7.98 12.02-14.51 19.11-20.59l0.88-0.75 1.07 0.02h0.02l-1.95 0.73c6.17-5.16 12.66-9.98 20.17-13.62zM607.75 645.19c-8.99-3.8-16.66-9.26-23.97-15.18l1.83 0.64h-0.02l-1.09-0.02-0.74-0.61c-5.91-4.88-11.52-10.14-16.22-16.55 7.33 3.07 13.75 7.31 19.88 11.91l-1.83-0.63h0.02l0.98-0.02 0.85 0.66c7.45 5.72 14.54 11.93 20.31 19.8z" fill="#110971" p-id="4681"></path><path d="M603.83 611.82c-4.64 6.94-10.3 12.7-16.27 18.1l-0.78 0.7-1.17 0.03h-0.02l1.95-0.73c-6.95 6.15-14.26 11.85-23.01 16.11 5.29-7.98 12.02-14.51 19.11-20.59l0.88-0.75 1.07 0.02h0.02l-1.95 0.73c6.18-5.16 12.66-9.98 20.17-13.62zM656.43 799.7c-8.99-3.8-16.66-9.26-23.97-15.18l1.83 0.64h-0.02l-1.09-0.02-0.74-0.61c-5.91-4.88-11.52-10.14-16.22-16.55 7.33 3.07 13.75 7.31 19.88 11.91l-1.83-0.63h0.02l0.98-0.02 0.85 0.66c7.45 5.73 14.53 11.94 20.31 19.8z" fill="#110971" p-id="4682"></path><path d="M652.51 766.34c-4.64 6.94-10.3 12.7-16.27 18.1l-0.78 0.7-1.17 0.03h-0.02l1.95-0.73c-6.95 6.15-14.26 11.85-23.01 16.11 5.29-7.98 12.02-14.51 19.11-20.59l0.88-0.75 1.07 0.02h0.02l-1.95 0.73c6.18-5.16 12.66-9.98 20.17-13.62zM688.97 882.67c-8.99-3.8-16.66-9.26-23.97-15.18l1.83 0.64h-0.02l-1.09-0.02-0.74-0.61c-5.91-4.88-11.52-10.14-16.22-16.55 7.33 3.07 13.75 7.31 19.88 11.91l-1.83-0.63h0.02l0.98-0.02 0.85 0.66c7.45 5.73 14.53 11.94 20.31 19.8z" fill="#110971" p-id="4683"></path><path d="M685.05 849.31c-4.64 6.94-10.3 12.7-16.27 18.1l-0.78 0.7-1.17 0.03h-0.02l1.95-0.73c-6.95 6.15-14.26 11.85-23.01 16.11 5.29-7.98 12.02-14.51 19.11-20.59l0.88-0.75 1.07 0.02h0.02l-1.95 0.73c6.17-5.16 12.66-9.98 20.17-13.62zM375.03 799.7c5.77-7.86 12.86-14.07 20.31-19.82l0.85-0.66 0.98 0.02h0.02l-1.83 0.63c6.13-4.6 12.54-8.84 19.88-11.91-4.7 6.41-10.31 11.67-16.22 16.55l-0.74 0.61-1.09 0.02h-0.02l1.83-0.64c-7.31 5.95-14.98 11.41-23.97 15.2z" fill="#110971" p-id="4684"></path><path d="M378.95 766.34c7.51 3.64 13.99 8.46 20.17 13.62l-1.95-0.73h0.02l1.07-0.02 0.88 0.75c7.09 6.08 13.82 12.61 19.11 20.59-8.75-4.26-16.06-9.96-23.01-16.11l1.95 0.73h-0.02l-1.17-0.03-0.78-0.7c-5.97-5.4-11.63-11.16-16.27-18.1zM342.49 882.67c5.77-7.86 12.86-14.07 20.31-19.82l0.85-0.66 0.98 0.02h0.02l-1.83 0.63c6.13-4.6 12.55-8.84 19.88-11.91-4.7 6.41-10.31 11.67-16.22 16.55l-0.74 0.61-1.09 0.02h-0.02l1.83-0.64c-7.31 5.95-14.98 11.4-23.97 15.2z" fill="#110971" p-id="4685"></path><path d="M346.41 849.31c7.51 3.64 13.99 8.46 20.17 13.62l-1.95-0.73h0.02l1.07-0.02 0.88 0.75c7.09 6.08 13.82 12.61 19.11 20.59-8.75-4.26-16.06-9.96-23.01-16.11l1.95 0.73h-0.02l-1.17-0.03-0.78-0.7c-5.97-5.4-11.63-11.16-16.27-18.1zM474.37 292.18c3.35-1.24 6.71-2 10.07-2.97l10.06 0.02h50.33c3.35 0.99 6.71 1.75 10.06 2.95-3.35 1.2-6.71 1.95-10.06 2.95H494.5l-10.06 0.02c-3.36-0.97-6.72-1.73-10.07-2.97zM467.35 389.61c15.76-2.37 31.52-2.91 47.27-3.01 15.76 0.08 31.52 0.63 47.27 3.01-15.76 2.38-31.52 2.93-47.27 3.01-15.75-0.1-31.51-0.64-47.27-3.01zM554.19 590.26c7.72-2.37 15.44-2.91 23.16-3.01 7.72 0.08 15.44 0.63 23.16 3.01-7.72 2.38-15.44 2.93-23.16 3.01-7.72-0.1-15.44-0.64-23.16-3.01zM626.48 824.93c7.72-2.37 15.44-2.91 23.16-3.01 7.72 0.08 15.44 0.63 23.16 3.01-7.72 2.38-15.44 2.93-23.16 3.01-7.72-0.09-15.44-0.64-23.16-3.01zM362.56 824.93c7.72-2.37 15.44-2.91 23.16-3.01 7.72 0.08 15.44 0.63 23.16 3.01-7.72 2.38-15.44 2.93-23.16 3.01-7.72-0.09-15.44-0.64-23.16-3.01zM430.56 590.26c7.72-2.37 15.44-2.91 23.16-3.01 7.72 0.08 15.44 0.63 23.16 3.01-7.72 2.38-15.44 2.93-23.16 3.01-7.72-0.1-15.44-0.64-23.16-3.01z" fill="#110971" p-id="4686"></path><path d="M216.91 927.33h180.65v25.44H216.91zM641.78 927.33h180.65v25.44H641.78z" fill="#F099F9" p-id="4687"></path><path d="M421.84 952.77c-1.8-7.27-2.85-14.81-2.85-22.61 0-53.54 44.81-96.94 100.09-96.94s100.09 43.4 100.09 96.94c0 7.8-1.05 15.35-2.85 22.61h27.18c1.41-7.34 2.24-14.88 2.24-22.61 0-67.75-56.71-122.68-126.66-122.68S392.42 862.4 392.42 930.15c0 7.74 0.83 15.27 2.24 22.61h27.18z" fill="#6250EA" p-id="4688"></path><path d="M554.16 212.76H469.6c-6.55 0-11.87-5.33-11.87-11.87s5.33-11.87 11.87-11.87h1.07V174.5c0-19.58 14.47-36.55 33.49-39.99l-0.8-3.65 7.94-36.54 7.94 36.54-0.8 3.65c19.02 3.43 33.49 20.41 33.49 39.99v14.52h2.24c6.55 0 11.87 5.33 11.87 11.87s-5.33 11.87-11.88 11.87z m-84.56-18.04c-3.4 0-6.16 2.76-6.16 6.16s2.76 6.16 6.16 6.16h84.57c3.4 0 6.16-2.76 6.16-6.16s-2.76-6.16-6.16-6.16h-7.95V174.5c0-17.75-13.84-33.01-31.5-34.74l-3.19-0.31 1.86-8.58-2.09-9.63-2.09 9.63 1.86 8.58-3.19 0.31c-17.66 1.74-31.5 17-31.5 34.74v20.23h-6.78zM445.54 436.99c-0.16 0-0.33-0.01-0.5-0.04a2.855 2.855 0 0 1-2.32-3.3c7.23-41.35 12.42-81.87 15.44-120.45 0.12-1.58 1.55-2.77 3.07-2.62 1.57 0.12 2.75 1.5 2.62 3.07-3.03 38.75-8.25 79.46-15.51 120.98a2.833 2.833 0 0 1-2.8 2.36zM404.36 612.96c-0.26 0-0.53-0.04-0.79-0.11a2.853 2.853 0 0 1-1.95-3.54c7.8-26.99 14.96-54.05 21.3-80.49h-14.73c-5.44 0-9.87-4.43-9.87-9.87v-3.1c0-2.94 1.35-5.68 3.61-7.53v-23.2c0-5.12 4.17-9.29 9.29-9.29h23.51c0.56-2.73 1.11-5.47 1.65-8.21 0.31-1.55 1.77-2.55 3.36-2.25a2.85 2.85 0 0 1 2.24 3.36c-0.7 3.52-1.41 7.03-2.13 10.53l-0.47 2.28h-28.16a3.59 3.59 0 0 0-3.58 3.58v23.26l0.66 2.82-1.95 1c-1.43 0.74-2.32 2.13-2.32 3.64v3.1c0 2.29 1.86 4.16 4.16 4.16h21.96l-0.84 3.51c-6.56 27.65-14.03 56-22.2 84.27a2.865 2.865 0 0 1-2.75 2.08zM355.4 760.57c-0.33 0-0.67-0.06-1-0.18a2.841 2.841 0 0 1-1.67-3.67c3.96-10.6 7.95-21.56 11.88-32.63h-22.27c-7.25 0-13.14-5.89-13.14-13.14v-1.41c0-4.55 2.33-8.68 6.09-11.07-0.03-0.33-0.05-0.65-0.05-0.97v-27.49c0-6.78 5.51-12.29 12.29-12.29h39.4c2.11-6.63 4.2-13.34 6.27-20.12a2.852 2.852 0 0 1 3.57-1.9 2.84 2.84 0 0 1 1.89 3.56c-2.29 7.48-4.6 14.88-6.93 22.18l-0.63 1.99h-43.58c-3.63 0-6.57 2.95-6.57 6.58v27.49c0 0.51 0.09 1.06 0.28 1.73l0.7 2.46-2.37 0.97c-2.83 1.15-4.66 3.85-4.66 6.87v1.41c0 4.1 3.33 7.43 7.43 7.43h30.35l-1.35 3.81c-4.38 12.4-8.85 24.69-13.27 36.54a2.84 2.84 0 0 1-2.66 1.85zM242.32 955.62h-28.27v-31.15h13.77c17.78-17.38 41.01-44.2 70.98-81.93 0.98-1.23 2.78-1.45 4.01-0.46a2.85 2.85 0 0 1 0.46 4.01c-30.59 38.51-54.24 65.76-72.3 83.29l-0.83 0.81h-10.37v19.73h22.55c1.58 0 2.86 1.28 2.86 2.86s-1.28 2.84-2.86 2.84zM425.49 955.62h-90.7a2.86 2.86 0 1 1 0-5.72h83.47c-1.41-6.69-2.12-13.32-2.12-19.76 0-19.63 5.88-38.63 16.99-54.94 0.89-1.3 2.66-1.64 3.97-0.75 1.3 0.89 1.64 2.66 0.75 3.97-10.47 15.36-16 33.25-16 51.73 0 7.12 0.93 14.49 2.77 21.93l0.87 3.54zM443.49 869.46c-0.68 0-1.36-0.24-1.91-0.73a2.86 2.86 0 0 1-0.22-4.03c1.68-1.87 3.47-3.72 5.31-5.49a2.858 2.858 0 0 1 3.96 4.12 98.029 98.029 0 0 0-5.02 5.19c-0.56 0.62-1.34 0.94-2.12 0.94zM668.89 955.62h-56.22l0.88-3.54c1.84-7.42 2.77-14.8 2.77-21.93 0-51.88-43.62-94.08-97.23-94.08-17.08 0-33.87 4.34-48.57 12.56-1.38 0.77-3.12 0.27-3.89-1.1a2.856 2.856 0 0 1 1.1-3.89c15.55-8.69 33.31-13.29 51.36-13.29 56.76 0 102.94 44.77 102.94 99.79 0 6.45-0.71 13.08-2.12 19.76h48.99c1.58 0 2.86 1.28 2.86 2.86s-1.29 2.86-2.87 2.86zM825.28 955.62h-75.81a2.86 2.86 0 1 1 0-5.72h70.09v-19.73h-19.65l-0.76-0.56c-16.98-12.64-31.1-25.97-44.44-41.93a2.854 2.854 0 0 1 4.38-3.66c12.84 15.37 26.43 28.25 42.71 40.45h23.47v31.15zM715.62 838.56c-0.92 0-1.82-0.44-2.37-1.26-4.1-6.08-8.21-11.93-12.25-17.68-13.7-19.49-26.65-37.9-34.71-59.18-4.64-12.25-9.28-25.13-13.78-38.28l-1.3-3.78h30.02c4.1 0 7.43-3.33 7.43-7.43v-1.41c0-3.21-2.18-6.12-5.31-7.07l-2.6-0.79 0.66-2.64c0.14-0.58 0.21-1.08 0.21-1.54v-27.49c0-3.63-2.95-6.58-6.57-6.58H633.9l-0.6-2.05c-8.15-27.92-15.88-57.41-22.98-87.67-0.36-1.54 0.59-3.07 2.13-3.43 1.52-0.36 3.07 0.59 3.43 2.13 6.9 29.41 14.4 58.11 22.3 85.32h36.87c6.77 0 12.29 5.51 12.29 12.29v27.49c0 0.15 0 0.3-0.01 0.45 4.25 2.24 7.05 6.71 7.05 11.58v1.41c0 7.25-5.89 13.14-13.14 13.14h-22.02c4.07 11.78 8.24 23.31 12.42 34.33 7.81 20.61 20.55 38.73 34.04 57.92 4.06 5.78 8.2 11.67 12.32 17.77a2.85 2.85 0 0 1-0.77 3.96c-0.5 0.33-1.06 0.49-1.61 0.49zM606.14 545.13c-1.32 0-2.5-0.91-2.79-2.25-1.19-5.47-2.34-10.91-3.48-16.33l-0.72-3.44h16.23a4.17 4.17 0 0 0 4.16-4.16v-3.1c0-1.68-1.03-3.19-2.62-3.84l-2.1-0.85 0.36-2.24c0.04-0.24 0.1-0.47 0.16-0.7v-23.09c0-1.97-1.6-3.58-3.58-3.58h-20.78l-0.43-2.34c-6.25-33.85-11.88-68.87-16.74-104.1-0.21-1.56 0.88-3 2.44-3.22 1.57-0.21 3 0.88 3.22 2.44 4.73 34.33 10.2 68.47 16.26 101.51h16.03c5.12 0 9.29 4.17 9.29 9.29v22.67a9.81 9.81 0 0 1 4.2 8.06v3.1c0 5.44-4.43 9.87-9.87 9.87h-9.2c0.9 4.27 1.81 8.55 2.74 12.85 0.34 1.54-0.64 3.06-2.18 3.4-0.2 0.03-0.4 0.05-0.6 0.05z" fill="#110971" p-id="4689"></path><path d="M570.16 340.39c-1.5 0-2.81-1.11-3.02-2.63-9.15-65.89-12.48-112.97-13.23-124.78h-84.99c0.56 23.73 0.07 48.4-1.45 73.39-0.1 1.68-1.56 2.98-3.23 2.86a3.053 3.053 0 0 1-2.86-3.23c1.58-25.92 2.04-51.48 1.36-75.99l-0.09-3.14h97.02l0.15 2.89c0.03 0.5 2.81 51.29 13.35 127.16a3.054 3.054 0 0 1-3.01 3.47zM528.31 481.55h-21.98l0.35-3.17c3.35-30.49 4.99-57.66 4.89-80.75l-0.01-2.69 2.68-0.22c1.49-0.1 2.16-0.14 2.87 2.88h0.17v0.79c0.56 2.76 1.17 7.53 2.21 15.74 1.86 14.61 4.79 37.53 8.38 64.18l0.44 3.24z m-15.61-5.71h9.08c-2.12-15.81-4-30.2-5.54-42.2-0.77 13.2-1.95 27.3-3.54 42.2zM557.74 663.43h-83.92l0.81-3.5c7.46-32.23 18.01-81.7 25.93-134.39l0.37-2.43h33.14l0.35 2.45c8.56 59.91 16.15 105.13 22.56 134.41l0.76 3.46zM481 657.72h69.65c-6.19-29.04-13.43-72.37-21.54-128.9h-23.27c-7.61 50.1-17.53 97.07-24.84 128.9z" fill="#110971" p-id="4690"></path><path d="M607.61 514.82H415.34c-3.42 0-6.22-2.8-6.22-6.22v-23.69c0-3.42 2.8-6.22 6.22-6.22h192.27c3.42 0 6.22 2.8 6.22 6.22v23.69c0 3.43-2.8 6.22-6.22 6.22z" fill="#CEF6FE" p-id="4691"></path><path d="M672.23 706.93H350.31c-4.99 0-9.08-4.09-9.08-9.08v-28.2c0-4.99 4.09-9.08 9.08-9.08h321.92c4.99 0 9.08 4.09 9.08 9.08v28.2c0 5-4.09 9.08-9.08 9.08z" fill="#7B62F6" p-id="4692"></path><path d="M344.9 699.26h333.76c5.44 0 9.9 4.45 9.9 9.9v2.17c0 5.44-4.45 9.9-9.9 9.9H344.9c-5.44 0-9.9-4.45-9.9-9.9v-2.17c0-5.45 4.46-9.9 9.9-9.9z" fill="#CEF6FE" p-id="4693"></path><path d="M285.81 396.77s-11.68-3.52-15.63 5.05c-3.96 8.58 18.81 13.76 30.84 9.6 1.25-8.32 1.13-32.43-11.37-28.82-10.64 3.08-3.84 14.17-3.84 14.17z" fill="#F099F9" p-id="4694"></path><path d="M290.94 415.76c-8.81 0-18.09-2.59-21.94-6.84-2.24-2.47-2.74-5.42-1.42-8.29 2.79-6.06 8.76-7.55 13.69-7.43-0.55-2.18-0.76-4.78 0.2-7.24 0.79-2.04 2.71-4.75 7.38-6.09 4.49-1.29 7.55 0.28 9.32 1.84 7.37 6.46 6.54 24.38 5.67 30.15l-0.26 1.71-1.64 0.56c-3.21 1.11-7.06 1.63-11 1.63z m-10.49-16.87c-2.8 0-6.13 0.79-7.67 4.14-0.25 0.54-0.41 1.11 0.46 2.07 3.45 3.81 16.42 6.32 25.18 4.13 0.73-7.3 0.08-19.64-4.01-23.23-0.72-0.63-1.81-1.27-3.97-0.64-2.93 0.84-3.46 2.22-3.63 2.67-0.95 2.45 0.77 6.15 1.45 7.26l3.92 6.39-7.17-2.16c-0.19-0.06-2.18-0.63-4.56-0.63zM221.32 483.7s-7.6-2.29-10.18 3.29 12.24 8.96 20.08 6.25c0.81-5.41 0.73-21.12-7.41-18.76-6.92 1.99-2.49 9.22-2.49 9.22z" fill="#F099F9" p-id="4695"></path><path d="M224.56 497.05c-5.79 0-12.06-1.6-14.93-4.77-1.72-1.9-2.11-4.26-1.09-6.49 1.8-3.91 5.36-5.22 8.61-5.4-0.18-1.29-0.13-2.72 0.4-4.09 0.6-1.54 2.02-3.58 5.45-4.57 3.35-0.97 5.66 0.23 7 1.4 5.13 4.49 4.61 16.63 4.03 20.53l-0.26 1.71-1.64 0.56c-2.11 0.75-4.79 1.12-7.57 1.12z m-6.73-10.98c-1.54 0-3.3 0.41-4.09 2.12 0.57 1.77 8.78 4.03 14.86 2.81 0.37-4.86-0.26-11.74-2.34-13.56-0.28-0.25-0.68-0.49-1.65-0.21-0.95 0.27-1.53 0.66-1.71 1.14-0.4 1.04 0.38 3.05 0.86 3.84l3.92 6.39-7.17-2.16c-0.14-0.04-1.32-0.37-2.68-0.37zM418.38 221.62s-7.6-2.29-10.18 3.29 12.24 8.96 20.08 6.25c0.81-5.41 0.73-21.12-7.41-18.76-6.92 2-2.49 9.22-2.49 9.22z" fill="#F099F9" p-id="4696"></path><path d="M421.62 234.97c-5.79 0-12.05-1.6-14.93-4.77-1.71-1.9-2.11-4.26-1.09-6.49 1.8-3.91 5.36-5.22 8.61-5.4-0.18-1.3-0.13-2.72 0.4-4.1 0.6-1.54 2.02-3.57 5.45-4.56 3.34-0.97 5.65 0.23 7 1.4 5.13 4.49 4.61 16.63 4.03 20.53l-0.26 1.71-1.63 0.56c-2.12 0.75-4.8 1.12-7.58 1.12z m-6.74-10.98c-1.53 0-3.3 0.41-4.09 2.11 0.57 1.77 8.79 4.03 14.86 2.81 0.37-4.86-0.26-11.74-2.34-13.56-0.28-0.25-0.67-0.5-1.65-0.21-0.95 0.27-1.53 0.66-1.71 1.14-0.4 1.04 0.38 3.05 0.86 3.84l3.92 6.39-7.17-2.16c-0.12-0.03-1.31-0.36-2.68-0.36zM615.8 177.24s7.47-15.66-3.74-23.07-23.41 23.49-20.14 41.3c11.43 3.55 45.37 8.57 42.98-9.79-2.03-15.62-19.1-8.44-19.1-8.44zM726.82 414.17s7.47-15.66-3.74-23.07-23.41 23.49-20.14 41.3c11.43 3.55 45.37 8.57 42.98-9.79-2.03-15.62-19.1-8.44-19.1-8.44z" fill="#F099F9" p-id="4697"></path><path d="M554.42 367.67c0.22 21.42 3.65 27.53 11.14 19.88-7.5 7.65-1.32 10.95 20.11 10.72-21.42 0.22-27.53 3.65-19.88 11.14-7.65-7.5-10.95-1.32-10.72 20.11-0.22-21.42-3.65-27.53-11.14-19.88 7.5-7.65 1.32-10.95-20.11-10.72 21.42-0.22 27.53-3.65 19.88-11.14 7.65 7.5 10.94 1.32 10.72-20.11z" fill="#FFFFFF" p-id="4698"></path><path d="M487.22 726.79c0.22 21.42 3.65 27.53 11.14 19.88-7.5 7.65-1.32 10.95 20.11 10.72-21.42 0.22-27.53 3.65-19.88 11.14-7.65-7.5-10.95-1.32-10.72 20.11-0.22-21.42-3.65-27.53-11.14-19.88 7.5-7.65 1.32-10.95-20.11-10.72 21.42-0.22 27.53-3.65 19.88-11.14 7.65 7.49 10.95 1.32 10.72-20.11z" fill="#FFFFFF" p-id="4699"></path><path d="M510.97 76.84c0.22 21.42 3.65 27.53 11.14 19.88-7.5 7.65-1.32 10.95 20.11 10.72-21.42 0.22-27.53 3.65-19.88 11.14-7.65-7.5-10.95-1.32-10.72 20.11-0.22-21.42-3.65-27.53-11.14-19.88 7.5-7.65 1.32-10.95-20.11-10.72 21.42-0.22 27.53-3.65 19.88-11.14 7.65 7.49 10.94 1.32 10.72-20.11zM409.32 281.47c0.18 7.42 1.39 9.52 3.95 6.84-2.56 2.69-0.41 3.8 7.01 3.62-7.42 0.18-9.52 1.39-6.84 3.95-2.69-2.56-3.8-0.41-3.62 7.01-0.18-7.42-1.39-9.52-3.95-6.84 2.56-2.69 0.41-3.8-7.01-3.62 7.42-0.18 9.52-1.39 6.84-3.95 2.68 2.57 3.8 0.41 3.62-7.01zM609.34 204.98c0.37 15.87 2.97 20.36 8.45 14.61-5.48 5.74-0.87 8.12 15 7.75-15.87 0.37-20.36 2.97-14.61 8.45-5.74-5.48-8.12-0.87-7.75 15-0.37-15.87-2.97-20.36-8.45-14.61 5.48-5.74 0.87-8.12-15-7.75 15.87-0.37 20.36-2.97 14.61-8.45 5.74 5.47 8.12 0.87 7.75-15zM360.47 543.18c0.22 21.42 3.65 27.53 11.14 19.88-7.5 7.65-1.32 10.95 20.11 10.72-21.42 0.22-27.53 3.65-19.88 11.14-7.65-7.5-10.95-1.32-10.72 20.11-0.22-21.42-3.65-27.53-11.14-19.88 7.5-7.65 1.32-10.95-20.11-10.72 21.42-0.22 27.53-3.65 19.88-11.14 7.65 7.49 10.94 1.32 10.72-20.11zM774.91 668.33c0.22 21.42 3.65 27.53 11.14 19.88-7.5 7.65-1.32 10.95 20.11 10.72-21.42 0.22-27.53 3.65-19.88 11.14-7.65-7.5-10.95-1.32-10.72 20.11-0.22-21.42-3.65-27.53-11.14-19.88 7.5-7.65 1.32-10.95-20.11-10.72 21.42-0.22 27.53-3.65 19.88-11.14 7.65 7.49 10.94 1.32 10.72-20.11zM524.72 849.2c0.22 21.42 3.65 27.53 11.14 19.88-7.5 7.65-1.32 10.95 20.11 10.72-21.42 0.22-27.53 3.65-19.88 11.14-7.65-7.5-10.95-1.32-10.72 20.11-0.22-21.42-3.65-27.53-11.14-19.88 7.5-7.65 1.32-10.95-20.11-10.72 21.42-0.22 27.53-3.65 19.88-11.14 7.65 7.49 10.94 1.31 10.72-20.11z" fill="#F099F9" p-id="4700"></path><path d="M412.15 508.84h199.26c3.73 0 6.78 3.05 6.78 6.78v3.57c0 3.73-3.05 6.78-6.78 6.78H412.15c-3.73 0-6.78-3.05-6.78-6.78v-3.57c0-3.73 3.05-6.78 6.78-6.78z" fill="#6250EA" p-id="4701"></path></svg>